<svg width="62" height="59" viewBox="0 0 62 59" fill="none" xmlns="http://www.w3.org/2000/svg">
<path d="M52.2575 58.0818H10.1372C5.08703 58.0818 0.896484 54.8583 0.896484 50.7752V8.22505C0.896484 4.2494 4.97958 0.918457 10.1372 0.918457H52.2575C57.3077 0.918457 61.4982 4.14195 61.4982 8.22505V50.7752C61.3908 54.8583 57.3077 58.0818 52.2575 58.0818ZM10.1372 2.31531C5.94663 2.31531 2.61568 5.00155 2.61568 8.22505V50.7752C2.61568 54.1061 5.94663 56.6849 10.1372 56.6849H52.2575C56.4481 56.6849 59.779 53.9987 59.779 50.7752V8.22505C59.779 4.8941 56.4481 2.31531 52.2575 2.31531H10.1372Z" fill="#1A68FC"/>
<path d="M48.6042 50.5603H14.1128V52.2795H48.6042V50.5603Z" fill="#1A68FC"/>
<path d="M42.9094 32.4013L42.6945 31.4343L37.7518 29.6076L36.8922 29.2853L34.2059 26.3841V25.5245C35.2343 25.0738 36.1365 24.3777 36.8334 23.4972C37.5302 22.6168 38.0005 21.5788 38.2031 20.4744C38.6643 20.369 39.0756 20.1091 39.3688 19.7377C39.662 19.3664 39.8193 18.9059 39.8148 18.4328C39.8028 18.0628 39.6981 17.7017 39.5104 17.3826C39.3227 17.0634 39.0579 16.7965 38.7403 16.6062C39.1682 15.9046 39.4379 15.1181 39.5307 14.3016C39.6235 13.4851 39.5371 12.6581 39.2776 11.8784C38.629 10.6108 37.5108 9.64688 36.1615 9.19215C34.7647 6.18355 29.7145 6.7208 29.4996 6.7208H29.3922C28.3264 6.81455 27.2995 7.16694 26.4008 7.7474C25.502 8.32785 24.7584 9.11884 24.2346 10.0517C23.3939 12.1117 23.3556 14.4119 24.1271 16.4987C23.7777 16.6891 23.4846 16.968 23.2771 17.3075C23.0696 17.647 22.9552 18.0351 22.9452 18.4328C22.9456 18.9211 23.1182 19.3935 23.4327 19.7669C23.7472 20.1404 24.1833 20.3909 24.6644 20.4744C24.8801 21.5707 25.353 22.6002 26.0441 23.4781C26.7353 24.3561 27.625 25.0574 28.64 25.5245V26.3841L25.8463 29.3927L24.9867 29.7151L20.1515 31.5417L19.9366 32.5088L19.7217 33.6907L19.6142 33.9056L17.5727 44.6506H44.865L43.0383 33.6907M24.5354 19.5073C24.4117 19.4629 24.2987 19.3931 24.2034 19.3025C24.1082 19.2119 24.0329 19.1025 23.9824 18.9812C23.9318 18.8598 23.9071 18.7293 23.9098 18.5979C23.9126 18.4665 23.9427 18.3371 23.9982 18.2179C24.1198 17.9894 24.3069 17.8023 24.5354 17.6807V19.5073ZM34.7432 28.5331L36.0541 29.8225L35.9466 30.0374L34.8721 34.0131L34.0125 33.3684L33.1529 32.6162L32.0784 31.7566L32.1859 31.5417L33.1529 29.8225L33.4753 29.1778L34.0125 28.2108L34.2274 27.8884L34.7432 28.5331ZM35.9251 34.1205L35.8177 36.1621V37.2366L35.7102 38.7409L33.991 40.1377L33.4538 37.6664L33.2389 36.8068V36.6993L33.6687 34.6578L35.2804 36.0546L35.9251 34.1205ZM31.5197 32.7237L32.8091 33.7982L32.2718 36.1621H30.4452L29.9079 33.7982L31.1973 32.7237H31.5197ZM30.5526 29.2853L30.0154 28.2108L29.693 27.6735V25.9543C30.222 26.0786 30.7618 26.1505 31.3048 26.1692H31.6271C32.1701 26.1505 32.71 26.0786 33.2389 25.9543V27.6735L32.9165 28.2108L32.3793 29.2853L31.5197 30.7896L30.5526 29.2853ZM38.8263 18.6477C38.8144 18.8242 38.7591 18.9949 38.6654 19.1449C38.5717 19.2948 38.4424 19.4193 38.289 19.5073V17.7881C38.4591 17.8546 38.6033 17.9741 38.7 18.1289C38.7968 18.2838 38.8411 18.4657 38.8263 18.6477ZM25.0727 15.854C24.7534 14.7745 24.644 13.6438 24.7503 12.5231C24.8144 11.9202 24.9969 11.3359 25.2876 10.8039C25.7427 10.0269 26.3833 9.3749 27.1521 8.90612C27.9209 8.43734 28.7939 8.16644 29.693 8.11765C30.0154 8.11765 34.4208 7.68785 35.3879 10.1592L35.4953 10.3741L35.7102 10.4815C36.2851 10.628 36.8221 10.8955 37.2853 11.2661C37.7486 11.6367 38.1274 12.1018 38.3965 12.6305C38.5655 13.0613 38.6433 13.5225 38.6248 13.9849C38.6063 14.4474 38.492 14.9009 38.289 15.3168C38.1914 15.6575 38.0467 15.983 37.8592 16.2838C37.6891 15.7988 37.4733 15.3311 37.2145 14.887C36.9996 14.4572 36.6773 14.0274 36.4624 13.5976C36.1373 13.1297 35.6918 12.7584 35.173 12.5231L34.8506 12.4156L34.7432 12.5231L34.6357 12.738C34.4063 13.0764 34.1146 13.3682 33.7761 13.5976C33.4383 13.8866 33.0444 14.1026 32.6191 14.2321C32.1938 14.3615 31.7463 14.4016 31.3048 14.3497C29.3064 14.1088 27.2821 14.4837 25.5025 15.4242C25.395 15.5317 25.2876 15.5317 25.2876 15.6391C25.2876 15.5317 25.1801 15.6391 25.0727 15.854ZM25.7174 20.5818C25.6285 20.231 25.5923 19.8688 25.6099 19.5073V17.036C25.6099 16.9285 25.7174 16.8211 25.7174 16.7136C25.7174 16.6062 25.9323 16.3913 26.0397 16.2838C27.6543 15.43 29.4922 15.0924 31.3048 15.3168C32.0419 15.3771 32.7824 15.2512 33.4583 14.9509C34.1342 14.6505 34.7238 14.1851 35.173 13.5976C35.9099 14.4975 36.491 15.5144 36.8922 16.6062C36.9996 16.9285 37.1071 17.1434 37.2145 17.4658V19.5073C37.2321 19.8688 37.1959 20.231 37.1071 20.5818C36.9594 21.4085 36.6201 22.189 36.1163 22.8607C35.6124 23.5325 34.9582 24.0768 34.2059 24.45C33.8766 24.6569 33.5126 24.8025 33.1314 24.8798C32.6025 25.0041 32.0627 25.076 31.5197 25.0947H31.1973C30.6543 25.076 30.1145 25.0041 29.5856 24.8798C29.2104 24.7835 28.8492 24.639 28.5111 24.45C27.7834 24.0582 27.154 23.5066 26.6702 22.8367C26.1863 22.1667 25.8605 21.3958 25.7174 20.5818ZM28.1887 28.5331L28.726 27.9959L28.9409 28.3182L29.4781 29.2853L29.8005 29.93L30.7675 31.6492L30.875 31.8641L29.8005 32.7237L28.9409 33.4758L28.0813 34.1205L27.0068 30.1449L26.8993 29.93L28.1887 28.5331ZM29.6071 36.8068L29.3922 37.6664L28.8549 40.1377L27.1357 38.7409L27.0283 37.2366V36.1621L26.9208 34.1205L27.4581 35.9472L29.0698 34.5503L29.4996 36.5919L29.6071 36.8068ZM29.1773 43.5761H19.077L20.7962 34.3354L21.0111 33.1535L21.226 32.1864L25.9538 30.4672L26.0612 35.7323V36.8068L26.1687 39.1707V39.2781L28.64 41.2122L29.6071 41.9643L31.4337 43.4686L29.1773 43.5761ZM29.7145 40.7824L30.3592 37.6664H32.4008L33.0455 40.7824L31.3263 42.0718L29.7145 40.7824ZM43.8979 43.4686H31.5197L33.3463 41.9643L34.3134 41.2122L36.7847 39.2781V39.1707L36.8922 36.8068V35.7323L36.9996 30.4672H37.1286L41.8564 32.1864L42.0713 33.1535L42.2862 34.3354L43.8979 43.4686Z" fill="#1A68FC"/>
</svg>
