<svg width="65" height="59" viewBox="0 0 65 59" fill="none" xmlns="http://www.w3.org/2000/svg">
<path d="M47.553 19.8797C47.553 16.9025 46.6702 13.9921 45.0161 11.5167C43.3621 9.04122 41.0111 7.11184 38.2605 5.97251C35.51 4.83318 32.4833 4.53508 29.5633 5.11591C26.6433 5.69673 23.9611 7.13039 21.8559 9.23559C19.7507 11.3408 18.3171 14.023 17.7362 16.943C17.1554 19.863 17.4535 22.8896 18.5928 25.6402C19.7322 28.3908 21.6615 30.7417 24.137 32.3958C26.6125 34.0498 29.5228 34.9327 32.5 34.9327C36.475 34.8771 40.2716 33.2733 43.0826 30.4623C45.8936 27.6512 47.4974 23.8547 47.553 19.8797ZM19.937 19.8797C19.937 17.3949 20.6738 14.966 22.0542 12.9C23.4347 10.834 25.3967 9.22381 27.6923 8.27294C29.9879 7.32208 32.5139 7.07329 34.9509 7.55803C37.3879 8.04278 39.6264 9.23929 41.3834 10.9963C43.1404 12.7532 44.3369 14.9918 44.8216 17.4287C45.3064 19.8657 45.0576 22.3917 44.1067 24.6873C43.1559 26.9829 41.5456 28.945 39.4797 30.3255C37.4137 31.7059 34.9847 32.4427 32.5 32.4427C29.1772 32.4132 25.9989 31.0801 23.6492 28.7304C21.2996 26.3808 19.9665 23.2025 19.937 19.8797Z" fill="#D6007F"/>
<path d="M33.8582 30.4054V29.0473C35.1064 28.7295 36.1965 27.9687 36.9253 26.9068C37.6541 25.8448 37.9719 24.554 37.8195 23.2751C37.4799 20.5587 35.6691 19.4269 32.9527 18.6347C30.2364 17.8424 29.8968 17.0501 29.8968 15.9183C29.8654 15.3308 30.0247 14.7489 30.351 14.2593C30.6774 13.7698 31.1533 13.3989 31.7077 13.202C31.8209 13.202 32.0473 13.0888 32.1605 13.0888C32.4855 13.033 32.8193 13.0552 33.1341 13.1536C33.4489 13.252 33.7359 13.4237 33.9713 13.6547C34.2613 13.9081 34.4925 14.2216 34.6489 14.5734C34.8053 14.9253 34.883 15.307 34.8768 15.692H37.4799C37.4794 14.9569 37.3168 14.231 37.0038 13.5659C36.6908 12.9008 36.2351 12.3128 35.6691 11.8438C35.0926 11.3292 34.3894 10.9776 33.6318 10.8252V9.46704H31.0287V10.8252C30.9155 10.8252 30.9155 10.8252 30.6891 10.9384C29.5779 11.2558 28.6104 11.9474 27.9505 12.8961C27.2905 13.8449 26.9785 14.9924 27.0673 16.1447C27.0673 17.7292 27.6332 19.9928 31.9341 21.2378C34.6504 22.0301 34.99 22.8223 34.99 23.7278C35.0823 24.4144 34.9121 25.1105 34.5134 25.677C34.1147 26.2435 33.517 26.6387 32.8395 26.7837H32.7264C32.4013 26.8395 32.0676 26.8173 31.7527 26.7189C31.4379 26.6205 31.1509 26.4488 30.9155 26.2178C30.6255 25.9644 30.3943 25.6509 30.2379 25.299C30.0816 24.9472 30.0038 24.5655 30.01 24.1805V24.0673H27.4069V24.1805C27.398 24.9061 27.545 25.625 27.8379 26.2889C28.1308 26.9528 28.5627 27.546 29.1046 28.0286C29.681 28.5433 30.3843 28.8949 31.1418 29.0473V30.4054H33.8582Z" fill="#D6007F"/>
<path d="M54.6834 58.7006H10.3166C4.99714 58.7006 0.583099 55.3052 0.583099 51.2307V7.76935C0.583099 3.69485 4.88396 0.299438 10.3166 0.299438H54.6834C60.0029 0.299438 64.4169 3.69485 64.4169 7.76935V51.3438C64.3037 55.4183 60.0029 58.7006 54.6834 58.7006ZM10.3166 1.6576C5.90258 1.6576 2.39399 4.37394 2.39399 7.76935V51.3438C2.39399 54.7393 5.90258 57.4556 10.3166 57.4556H54.6834C59.0974 57.4556 62.606 54.7393 62.606 51.3438V7.76935C62.606 4.37394 59.0974 1.6576 54.6834 1.6576H10.3166Z" fill="#D6007F"/>
<path d="M50.7221 41.9498H14.3911V43.7607H50.7221V41.9498Z" fill="#D6007F"/>
<path d="M50.7221 49.8726H14.3911V51.6834H50.7221V49.8726Z" fill="#D6007F"/>
</svg>
