<svg width="63" height="69" viewBox="0 0 63 69" fill="none" xmlns="http://www.w3.org/2000/svg">
<path d="M57.9842 25.2758H53.457C53.1654 24.3883 52.6064 23.6128 51.8567 23.0556C51.1069 22.4984 50.2032 22.1867 49.2693 22.1633H43.6103L44.1762 19.7865C44.445 18.5205 44.5966 17.2323 44.6289 15.9384V15.8252C44.6227 14.4144 44.1706 13.0416 43.3371 11.9033C42.5037 10.7649 41.3316 9.91919 39.9885 9.48712L39.7622 9.37393C39.0061 9.16106 38.1975 9.24192 37.4986 9.6003C37.16 9.77889 36.8699 10.037 36.653 10.3524C36.4362 10.6678 36.2991 11.0311 36.2536 11.4112L35.6877 14.9198C35.6877 15.033 35.5745 15.1461 35.5745 15.2593C35.2588 16.2269 34.7127 17.1033 33.9832 17.8131C33.2537 18.5229 32.3627 19.0447 31.3868 19.3338L25.9542 21.0881C23.9953 21.7718 22.3481 23.1378 21.3138 24.9363C20.9629 24.349 20.4655 23.8629 19.8703 23.5256C19.2751 23.1883 18.6025 23.0114 17.9183 23.0122H13.957C13.0663 23.0181 12.2032 23.3222 11.5057 23.8762C10.8082 24.4301 10.3164 25.2018 10.1089 26.0681C10.0155 26.3991 9.9773 26.7432 9.9957 27.0867V46.7801C9.99117 47.2867 10.0876 47.7891 10.2794 48.2581C10.4712 48.727 10.7545 49.153 11.1127 49.5112C11.4709 49.8695 11.897 50.1528 12.3659 50.3445C12.8348 50.5363 13.3372 50.6328 13.8438 50.6282H17.8052C18.6315 50.6146 19.4335 50.3464 20.1019 49.8603C20.7703 49.3742 21.2725 48.6938 21.5401 47.9119C22.3251 49.051 23.3722 49.9848 24.5934 50.6348C25.8146 51.2848 27.174 51.6319 28.5573 51.6469H32.5186C32.7287 51.6469 32.9303 51.5634 33.0788 51.4148C33.2274 51.2662 33.3109 51.0647 33.3109 50.8546C33.3109 50.6445 33.2274 50.443 33.0788 50.2944C32.9303 50.1458 32.7287 50.0623 32.5186 50.0623H28.5573C26.7563 50.0623 25.029 49.3469 23.7555 48.0733C22.4819 46.7998 21.7665 45.0725 21.7665 43.2715V29.1239C21.7727 27.7131 22.2248 26.3403 23.0583 25.202C23.8917 24.0636 25.0638 23.2179 26.4069 22.7858L31.8395 21.0315C33.0646 20.6868 34.1834 20.0397 35.0931 19.1498C36.0028 18.2599 36.6743 17.1556 37.0458 15.9384C37.159 15.712 37.159 15.5989 37.2722 15.3725L37.8381 11.9771C37.9513 11.6375 38.0645 11.4112 38.404 11.298C38.6791 11.1425 39.0045 11.1018 39.3095 11.1848L39.5358 11.298C40.5505 11.6137 41.438 12.2449 42.069 13.0999C42.7001 13.9549 43.0418 14.9889 43.0444 16.0516V16.2779C43.0383 17.4554 42.9246 18.6298 42.7049 19.7865L42.0258 22.9556C41.3002 23.2988 40.6895 23.8449 40.2677 24.5278C39.8459 25.2107 39.631 26.0012 39.649 26.8037C39.6486 27.9459 40.0955 29.0429 40.894 29.8596C40.2827 30.1112 39.7446 30.5127 39.3292 31.0269C38.9138 31.5412 38.6346 32.1518 38.5172 32.8023C37.6755 33.4081 36.7216 33.8402 35.7111 34.0734C34.7006 34.3066 33.6538 34.3362 32.6318 34.1605C32.4276 34.1181 32.2149 34.1546 32.0364 34.2625C31.858 34.3705 31.7269 34.5419 31.6696 34.7425C31.6123 34.943 31.633 35.1578 31.7275 35.3438C31.822 35.5297 31.9833 35.6731 32.1791 35.745C32.745 35.8582 33.3109 35.8582 33.99 35.9714C35.5658 35.9454 37.1146 35.5582 38.5172 34.8395C38.7102 35.6058 39.1004 36.3081 39.649 36.8768C38.919 37.2257 38.3 37.7699 37.8605 38.4492C37.421 39.1284 37.1782 39.9161 37.159 40.7249C37.1715 41.8098 37.5732 42.854 38.2908 43.6676C37.3128 43.9957 36.4829 44.6602 35.9488 45.5427C35.4147 46.4252 35.211 47.4686 35.374 48.4872C35.537 49.5059 36.0561 50.4336 36.8389 51.1054C37.6217 51.7773 38.6174 52.1496 39.649 52.1562H45.0817C46.2223 52.1562 47.3163 51.703 48.1228 50.8965C48.9294 50.0899 49.3825 48.996 49.3825 47.8553C49.37 46.7705 48.9684 45.7262 48.2507 44.9126C48.9451 44.6783 49.5684 44.2713 50.0623 43.7299C50.5562 43.1885 50.9043 42.5304 51.0741 41.8175C51.2438 41.1047 51.2295 40.3603 51.0326 39.6544C50.8357 38.9486 50.4627 38.3043 49.9484 37.7822C50.5741 37.4944 51.121 37.0598 51.5428 36.5153C51.9645 35.9708 52.2485 35.3326 52.3707 34.6548C52.493 33.977 52.4498 33.2798 52.2448 32.6223C52.0398 31.9648 51.6791 31.3665 51.1934 30.8782C51.8615 30.5687 52.4403 30.095 52.8757 29.5012C53.3111 28.9075 53.589 28.2131 53.6834 27.4828H57.9842C58.8547 27.4828 59.6896 27.8286 60.3051 28.4442C60.9207 29.0597 61.2665 29.8945 61.2665 30.765V56.7966C61.2665 57.6671 60.9207 58.5019 60.3051 59.1175C59.6896 59.733 58.8547 60.0788 57.9842 60.0788H46.8925C46.6662 60.0788 46.553 60.192 46.3266 60.3052L38.5172 66.6433V60.7579C38.5203 60.653 38.502 60.5486 38.4633 60.451C38.4246 60.3535 38.3663 60.2649 38.2921 60.1907C38.2179 60.1165 38.1293 60.0583 38.0318 60.0195C37.9342 59.9808 37.8298 59.9625 37.7249 59.9656H4.90258C4.47155 59.9656 4.04474 59.8807 3.64652 59.7158C3.2483 59.5508 2.88647 59.3091 2.58169 59.0043C1.96615 58.3887 1.62035 57.5539 1.62035 56.6834V30.1426C1.62035 29.2721 1.96615 28.4372 2.58169 27.8217C3.19723 27.2061 4.03208 26.8603 4.90258 26.8603C5.00662 26.8603 5.10964 26.8398 5.20577 26.8C5.30189 26.7602 5.38923 26.7018 5.4628 26.6283C5.53636 26.5547 5.59472 26.4674 5.63454 26.3712C5.67435 26.2751 5.69484 26.1721 5.69484 26.0681C5.69484 25.964 5.67435 25.861 5.63454 25.7649C5.59472 25.6688 5.53636 25.5814 5.4628 25.5078C5.38923 25.4343 5.30189 25.3759 5.20577 25.3361C5.10964 25.2963 5.00662 25.2758 4.90258 25.2758C4.26221 25.2713 3.62732 25.3941 3.03482 25.6371C2.44232 25.88 1.90402 26.2383 1.45119 26.6912C0.998372 27.144 0.64006 27.6823 0.397082 28.2748C0.154103 28.8673 0.0313029 29.5022 0.0358181 30.1426V56.1741C0.0313029 56.8144 0.154103 57.4493 0.397082 58.0418C0.64006 58.6343 0.998372 59.1726 1.45119 59.6255C1.90402 60.0783 2.44232 60.4366 3.03482 60.6796C3.62732 60.9226 4.26221 61.0453 4.90258 61.0408H37.2722V67.7185C37.2532 67.8672 37.2886 68.0178 37.3717 68.1426C37.4549 68.2673 37.5803 68.3579 37.7249 68.3976C37.7696 68.4403 37.8233 68.4727 37.882 68.4923C37.9407 68.5118 38.003 68.5181 38.0645 68.5107C38.2908 68.5107 38.404 68.3976 38.6304 68.2844L47.4584 60.8145H58.0974C58.7378 60.819 59.3727 60.6962 59.9652 60.4532C60.5577 60.2102 61.096 59.8519 61.5488 59.3991C62.0016 58.9463 62.3599 58.408 62.6029 57.8155C62.8459 57.223 62.9687 56.5881 62.9642 55.9477V30.1426C62.8717 28.8631 62.3142 27.6617 61.3968 26.7652C60.4793 25.8686 59.2655 25.3388 57.9842 25.2758ZM20.0688 29.1239V46.7801C20.0688 47.3804 19.8303 47.9562 19.4058 48.3807C18.9813 48.8052 18.4055 49.0437 17.8052 49.0437H13.8438C13.2435 49.0437 12.6677 48.8052 12.2432 48.3807C11.8187 47.9562 11.5802 47.3804 11.5802 46.7801V27.0867C11.5802 26.4863 11.8187 25.9106 12.2432 25.4861C12.6677 25.0616 13.2435 24.8231 13.8438 24.8231H17.8052C18.4055 24.8231 18.9813 25.0616 19.4058 25.4861C19.8303 25.9106 20.0688 26.4863 20.0688 27.0867V29.1239ZM45.0817 49.9491H39.649C39.2997 49.9418 38.9553 49.8657 38.6354 49.7252C38.3155 49.5847 38.0264 49.3825 37.7847 49.1303C37.5429 48.878 37.3533 48.5806 37.2265 48.2551C37.0997 47.9295 37.0383 47.5821 37.0458 47.2328C37.0711 46.5505 37.3535 45.9029 37.8363 45.4201C38.3191 44.9373 38.9666 44.6549 39.649 44.6297H45.0817C45.4252 44.6235 45.7665 44.6867 46.0851 44.8153C46.4037 44.944 46.6931 45.1355 46.936 45.3784C47.179 45.6214 47.3705 45.9108 47.4992 46.2294C47.6278 46.548 47.6909 46.8893 47.6848 47.2328V47.346C47.7009 47.6921 47.6446 48.0378 47.5195 48.3609C47.3944 48.6841 47.2032 48.9775 46.9582 49.2225C46.7132 49.4676 46.4197 49.6587 46.0966 49.7839C45.7735 49.909 45.4278 49.9653 45.0817 49.9491ZM46.8925 43.0451H41.4599C41.1106 43.0378 40.7661 42.9617 40.4463 42.8212C40.1264 42.6807 39.8373 42.4785 39.5956 42.2263C39.3538 41.974 39.1641 41.6766 39.0374 41.351C38.9106 41.0255 38.8492 40.6781 38.8567 40.3288C38.882 39.6465 39.1643 38.9989 39.6472 38.5161C40.13 38.0333 40.7775 37.7509 41.4599 37.7257H46.8925C47.2361 37.7195 47.5773 37.7827 47.8959 37.9113C48.2145 38.04 48.504 38.2315 48.7469 38.4744C48.9899 38.7174 49.1814 39.0068 49.31 39.3254C49.4387 39.644 49.5018 39.9853 49.4957 40.3288V40.442C49.5018 40.7855 49.4387 41.1268 49.31 41.4454C49.1814 41.764 48.9899 42.0534 48.7469 42.2964C48.504 42.5393 48.2145 42.7308 47.8959 42.8595C47.5773 42.9881 47.2361 43.0513 46.8925 43.0451ZM48.1375 36.0279H42.7049C41.9995 36.043 41.317 35.7771 40.8076 35.2889C40.2982 34.8008 40.0035 34.1302 39.9885 33.4248C39.9735 32.7194 40.2394 32.0369 40.7275 31.5275C41.2157 31.0181 41.8863 30.7235 42.5917 30.7085H48.1375C48.4811 30.7023 48.8223 30.7655 49.1409 30.8941C49.4595 31.0228 49.7489 31.2143 49.9919 31.4572C50.2349 31.7002 50.4264 31.9896 50.555 32.3082C50.6837 32.6268 50.7468 32.9681 50.7407 33.3116V33.4814C50.7319 34.169 50.4548 34.8261 49.9685 35.3124C49.4822 35.7986 48.8252 36.0757 48.1375 36.0845M49.2693 29.1805H43.8367C43.4874 29.1732 43.1429 29.0971 42.823 28.9566C42.5032 28.8161 42.2141 28.6139 41.9723 28.3617C41.7306 28.1094 41.5409 27.812 41.4142 27.4864C41.2874 27.1609 41.226 26.8135 41.2335 26.4642C41.2588 25.7818 41.5411 25.1343 42.0239 24.6515C42.5068 24.1686 43.1543 23.8863 43.8367 23.861H49.2693C49.9747 23.846 50.6572 24.1119 51.1666 24.6C51.676 25.0882 51.9707 25.7588 51.9857 26.4642C52.0007 27.1696 51.7349 27.8521 51.2467 28.3615C50.7585 28.8709 50.0879 29.1655 49.3825 29.1805H49.2693Z" fill="#0099FF"/>
<path d="M40.1017 3.77147V1.2815C40.0884 1.07575 40.0007 0.881878 39.8549 0.736086C39.7091 0.590295 39.5152 0.50255 39.3095 0.489235C39.2046 0.486102 39.1001 0.504452 39.0026 0.543158C38.9051 0.581864 38.8165 0.640108 38.7423 0.714311C38.6681 0.788513 38.6098 0.877106 38.5711 0.974645C38.5324 1.07218 38.5141 1.17661 38.5172 1.2815V3.77147C38.5172 3.98159 38.6007 4.18311 38.7492 4.33168C38.8978 4.48026 39.0993 4.56373 39.3095 4.56373C39.5196 4.56373 39.7211 4.48026 39.8697 4.33168C40.0182 4.18311 40.1017 3.98159 40.1017 3.77147Z" fill="#0099FF"/>
<path d="M29.6891 9.31732C29.899 9.31346 30.1003 9.23295 30.255 9.09096C30.3294 9.03153 30.3913 8.95804 30.4372 8.87467C30.4831 8.7913 30.5122 8.6997 30.5227 8.6051C30.5332 8.5105 30.525 8.41475 30.4985 8.32334C30.472 8.23192 30.4277 8.14663 30.3682 8.07233C30.3682 8.04232 30.3563 8.01353 30.335 7.9923C30.3138 7.97108 30.285 7.95915 30.255 7.95915L28.8968 6.60099C28.7428 6.47253 28.5463 6.40632 28.3459 6.41537C28.1455 6.42442 27.9558 6.50809 27.814 6.64992C27.6721 6.79174 27.5885 6.98149 27.5794 7.18186C27.5704 7.38223 27.6366 7.57875 27.765 7.73279L29.1232 9.09096C29.2985 9.19617 29.4896 9.2726 29.6891 9.31732Z" fill="#0099FF"/>
<path d="M49.3825 8.9778L50.7407 7.61963C50.8691 7.46559 50.9354 7.26907 50.9263 7.0687C50.9172 6.86833 50.8336 6.67859 50.6918 6.53676C50.5499 6.39493 50.3602 6.31127 50.1598 6.30221C49.9594 6.29316 49.7629 6.35937 49.6089 6.48783L48.2507 7.84599C48.1764 7.90542 48.1144 7.97891 48.0685 8.06228C48.0226 8.14565 47.9935 8.23725 47.983 8.33185C47.9725 8.42645 47.9807 8.52219 48.0073 8.61361C48.0338 8.70503 48.078 8.79032 48.1375 8.86462C48.1375 8.89463 48.1495 8.92342 48.1707 8.94465C48.1919 8.96587 48.2207 8.9778 48.2507 8.9778C48.3639 9.20416 48.5903 9.20416 48.8166 9.20416C48.8684 9.22819 48.9245 9.24138 48.9816 9.24292C49.0387 9.24446 49.0954 9.23432 49.1484 9.21312C49.2014 9.19192 49.2495 9.16011 49.2898 9.11964C49.33 9.07917 49.3616 9.03091 49.3825 8.9778Z" fill="#0099FF"/>
</svg>
