<svg width="61" height="55" viewBox="0 0 66 55" fill="none" xmlns="http://www.w3.org/2000/svg">
<path d="M42.4928 19.2815C42.4928 16.6415 41.6998 14.0608 40.214 11.8657C38.7283 9.67057 36.6165 7.95971 34.1458 6.94942C31.675 5.93913 28.9563 5.6748 26.3334 6.18984C23.7105 6.70488 21.3012 7.97616 19.4102 9.84294C17.5192 11.7097 16.2314 14.0881 15.7096 16.6774C15.1879 19.2667 15.4557 21.9506 16.4791 24.3896C17.5025 26.8287 19.2356 28.9134 21.4592 30.3801C23.6828 31.8468 26.297 32.6296 28.9713 32.6296C30.7478 32.6325 32.5074 32.2893 34.1493 31.6195C35.7911 30.9497 37.2829 29.9666 38.539 28.7265C39.7952 27.4865 40.7911 26.0138 41.4696 24.393C42.148 22.7723 42.4958 21.0352 42.4928 19.2815ZM17.573 19.2815C17.573 17.0778 18.235 14.9237 19.4752 13.0914C20.7153 11.2592 22.4781 9.83108 24.5404 8.98778C26.6028 8.14448 28.8721 7.92384 31.0615 8.35375C33.2508 8.78366 35.2619 9.84481 36.8404 11.403C38.4188 12.9612 39.4938 14.9465 39.9292 17.1078C40.3647 19.2691 40.1412 21.5094 39.287 23.5453C38.4327 25.5812 36.9861 27.3213 35.13 28.5456C33.274 29.7699 31.0918 30.4233 28.8596 30.4233C25.8752 30.3946 23.0213 29.2115 20.911 27.1282C18.8006 25.0449 17.6022 22.2276 17.573 19.2815Z" fill="#FF6600"/>
<path d="M30.2006 28.7134V27.5C31.3439 27.2311 32.3444 26.5504 33.0059 25.5913C33.6673 24.6322 33.9422 23.4638 33.7765 22.3151C33.553 19.8882 31.8768 18.8954 29.3066 18.2335C26.9599 17.5716 26.5129 16.9097 26.5129 15.8065C26.5011 15.28 26.6564 14.763 26.957 14.3279C27.2575 13.8927 27.6883 13.5612 28.1891 13.3796C28.3008 13.3796 28.4126 13.2693 28.6361 13.2693C28.9575 13.2369 29.2821 13.2737 29.5877 13.3771C29.8933 13.4805 30.1725 13.6481 30.4062 13.8683C30.6398 14.0884 30.8224 14.356 30.9412 14.6525C31.0601 14.9491 31.1124 15.2675 31.0945 15.5859H33.4412C33.4589 14.9252 33.316 14.2698 33.0243 13.6748C32.7327 13.0798 32.3009 12.5625 31.765 12.1661C31.2352 11.7306 30.6293 11.3941 29.9771 11.1733V9.95984H27.6304V11.1733C27.5186 11.1733 27.5186 11.1733 27.4069 11.2836C26.3949 11.5598 25.5097 12.1707 24.8994 13.0141C24.2892 13.8575 23.9909 14.8823 24.0544 15.9169C24.0544 17.2406 24.6132 19.3366 28.5243 20.4398C30.9828 21.1017 31.318 21.7636 31.318 22.6461C31.4128 23.2577 31.2696 23.882 30.9172 24.3936C30.5648 24.9052 30.0293 25.2662 29.4183 25.404H29.3066C28.9852 25.4363 28.6606 25.3996 28.355 25.2962C28.0494 25.1928 27.7702 25.0252 27.5365 24.805C27.3028 24.5848 27.1203 24.3172 27.0015 24.0207C26.8826 23.7242 26.8303 23.4058 26.8481 23.0873V22.977H24.5014V23.0873C24.4991 23.7347 24.6376 24.375 24.9075 24.9649C25.1774 25.5549 25.5724 26.0808 26.0659 26.5071C26.5957 26.9427 27.2016 27.2792 27.8539 27.5V28.7134H30.2006Z" fill="#FF6600"/>
<path d="M48.8624 54.6926H8.96847C4.16331 54.6926 0.252136 51.6038 0.252136 47.7428V7.25711C0.252136 3.39608 4.16331 0.307251 8.96847 0.307251H48.8624C53.6676 0.307251 57.5788 3.39608 57.5788 7.25711V47.7428C57.6905 51.6038 53.7794 54.6926 48.8624 54.6926ZM8.96847 1.63103C5.05729 1.63103 1.81661 4.16828 1.81661 7.25711V47.7428C1.81661 50.8316 5.05729 53.3689 8.96847 53.3689H48.9742C52.8854 53.3689 56.1261 50.8316 56.1261 47.7428V7.25711C56.1261 4.16828 52.8854 1.63103 48.9742 1.63103H8.96847Z" fill="#FF6600"/>
<path d="M45.2865 38.9176H12.5444V40.462H45.2865V38.9176Z" fill="#FF6600"/>
<path d="M45.2865 45.9778H12.5444V47.5222H45.2865V45.9778Z" fill="#FF6600"/>
<path d="M64.8424 21.2671H45.6218C45.2958 21.2671 44.9831 21.1393 44.7526 20.9117C44.5221 20.6842 44.3925 20.3755 44.3925 20.0537C44.3925 19.7318 44.5221 19.4232 44.7526 19.1956C44.9831 18.9681 45.2958 18.8402 45.6218 18.8402H64.8424C65.1675 18.8431 65.4785 18.9719 65.7084 19.1988C65.9383 19.4258 66.0687 19.7327 66.0716 20.0537C66.0892 20.2173 66.0695 20.3827 66.014 20.5378C65.9584 20.693 65.8684 20.8339 65.7506 20.9502C65.6327 21.0665 65.49 21.1554 65.3329 21.2102C65.1757 21.2651 65.0081 21.2845 64.8424 21.2671Z" fill="#FF6600"/>
<path d="M50.9857 13.545L52.1031 14.7585L46.1805 20.164L52.1031 25.5694L50.9857 26.7829L43.8338 20.164L50.9857 13.545Z" fill="#FF6600"/>
<path d="M65.9599 36.2699H46.7392C46.4132 36.2699 46.1006 36.1421 45.87 35.9145C45.6395 35.687 45.51 35.3783 45.51 35.0565C45.51 34.7347 45.6395 34.426 45.87 34.1984C46.1006 33.9709 46.4132 33.843 46.7392 33.843H65.9599C66.2859 33.843 66.5985 33.9709 66.8291 34.1984C67.0596 34.426 67.1891 34.7347 67.1891 35.0565C67.1891 35.3783 67.0596 35.687 66.8291 35.9145C66.5985 36.1421 66.2859 36.2699 65.9599 36.2699Z" fill="#FF6600"/>
<path d="M60.596 41.6754L59.4785 40.462L65.4011 35.0565L59.4785 29.6511L60.596 28.4376L67.7478 35.0565L60.596 41.6754Z" fill="#FF6600"/>
</svg>
