<svg width="39" height="39" viewBox="0 0 39 39" fill="none" xmlns="http://www.w3.org/2000/svg">
<circle cx="19.5" cy="19.5" r="18" stroke="white" stroke-width="3"/>
<path d="M25.9664 12.3272C25.8661 12.2268 25.7471 12.1471 25.616 12.0927C25.485 12.0384 25.3445 12.0104 25.2026 12.0104C25.0607 12.0104 24.9202 12.0384 24.7892 12.0927C24.6581 12.1471 24.5391 12.2268 24.4389 12.3272L19.1414 17.6139L13.8439 12.3164C13.7436 12.2161 13.6245 12.1365 13.4934 12.0822C13.3624 12.0279 13.2219 12 13.0801 12C12.9383 12 12.7978 12.0279 12.6668 12.0822C12.5357 12.1365 12.4167 12.2161 12.3164 12.3164C12.2161 12.4167 12.1365 12.5357 12.0822 12.6668C12.0279 12.7978 12 12.9383 12 13.0801C12 13.2219 12.0279 13.3624 12.0822 13.4934C12.1365 13.6245 12.2161 13.7436 12.3164 13.8439L17.6139 19.1414L12.3164 24.4389C12.2161 24.5392 12.1365 24.6582 12.0822 24.7893C12.0279 24.9203 12 25.0608 12 25.2026C12 25.3444 12.0279 25.4849 12.0822 25.6159C12.1365 25.747 12.2161 25.8661 12.3164 25.9664C12.4167 26.0667 12.5357 26.1462 12.6668 26.2005C12.7978 26.2548 12.9383 26.2827 13.0801 26.2827C13.2219 26.2827 13.3624 26.2548 13.4934 26.2005C13.6245 26.1462 13.7436 26.0667 13.8439 25.9664L19.1414 20.6689L24.4389 25.9664C24.5392 26.0667 24.6582 26.1462 24.7893 26.2005C24.9203 26.2548 25.0608 26.2827 25.2026 26.2827C25.3444 26.2827 25.4849 26.2548 25.6159 26.2005C25.747 26.1462 25.8661 26.0667 25.9664 25.9664C26.0667 25.8661 26.1462 25.747 26.2005 25.6159C26.2548 25.4849 26.2827 25.3444 26.2827 25.2026C26.2827 25.0608 26.2548 24.9203 26.2005 24.7893C26.1462 24.6582 26.0667 24.5392 25.9664 24.4389L20.6689 19.1414L25.9664 13.8439C26.378 13.4322 26.378 12.7389 25.9664 12.3272Z" fill="white"/>
</svg>
